<svg xmlns="http://www.w3.org/2000/svg" viewBox="0 0 1200 630"><rect width="1200" height="630" fill="#0F2A43"/><g opacity=".1" stroke="#fff"><path d="M0 90h1200M0 180h1200M0 270h1200M0 360h1200M0 450h1200M0 540h1200M120 0v630M240 0v630M360 0v630M480 0v630M600 0v630M720 0v630M840 0v630M960 0v630M1080 0v630"/></g><path d="M670 490 760 420l95 20 100-140 110-80" fill="none" stroke="#C7A24A" stroke-width="4"/><g fill="#C7A24A"><circle cx="670" cy="490" r="7"/><circle cx="760" cy="420" r="7"/><circle cx="855" cy="440" r="7"/><circle cx="955" cy="300" r="7"/><circle cx="1065" cy="220" r="7"/></g><circle cx="100" cy="105" r="45" fill="none" stroke="#C7A24A" stroke-width="2"/><text x="100" y="112" text-anchor="middle" fill="#fff" font-family="Georgia,serif" font-size="17" font-weight="700">CAEP</text><text x="95" y="270" fill="#fff" font-family="Georgia,serif" font-size="67">Central Asia</text><text x="95" y="348" fill="#C7A24A" font-family="Georgia,serif" font-size="67" font-style="italic">Economics Prize</text><text x="98" y="405" fill="#D6DEE3" font-family="Arial,sans-serif" font-size="24">Economics. Evidence. Central Asia.</text><text x="98" y="535" fill="#C7A24A" font-family="Arial,sans-serif" font-size="16" letter-spacing="4">INAUGURAL COMPETITION · 2026</text></svg>
